<?xml version="1.0" standalone="no"?>
<!DOCTYPE svg PUBLIC "-//W3C//DTD SVG 20010904//EN"
 "http://www.w3.org/TR/2001/REC-SVG-20010904/DTD/svg10.dtd">
<svg version="1.0" xmlns="http://www.w3.org/2000/svg"
 width="700.000000pt" height="700.000000pt" viewBox="0 0 700.000000 700.000000"
 preserveAspectRatio="xMidYMid meet">
<metadata>
Created by potrace 1.14, written by Peter Selinger 2001-2017
</metadata>
<g transform="translate(0.000000,700.000000) scale(0.100000,-0.100000)"
fill="#000000" stroke="none">
<path d="M5075 6130 c0 -286 -3 -520 -6 -520 -3 0 -55 33 -115 74 -135 89
-287 172 -425 230 -137 57 -312 116 -389 131 -8 2 -33 8 -55 14 -22 5 -56 13
-75 16 -19 3 -57 10 -85 15 -192 36 -591 45 -742 16 -11 -3 -44 -7 -74 -11
-30 -3 -61 -8 -69 -10 -8 -2 -31 -7 -50 -11 -19 -3 -39 -7 -45 -8 -5 -2 -23
-6 -40 -10 -376 -93 -686 -239 -980 -460 -490 -369 -835 -897 -978 -1496 -14
-58 -28 -121 -31 -140 -16 -104 -26 -180 -30 -224 -3 -26 -8 -51 -11 -55 -4
-3 -122 -6 -263 -6 l-257 0 -3 -175 -2 -175 265 0 c146 0 265 -2 266 -5 0 -3
2 -27 5 -55 107 -1183 1019 -2165 2189 -2354 279 -45 535 -47 815 -6 306 45
643 161 892 306 40 24 82 47 93 53 18 10 130 85 180 121 20 14 20 13 20 -510
l0 -525 175 0 175 0 0 686 0 685 24 22 c78 73 269 341 355 500 142 261 262
615 291 862 4 33 9 69 11 80 22 118 22 521 0 640 -2 11 -7 42 -10 68 -47 318
-174 674 -339 947 -89 147 -206 308 -286 393 -20 21 -38 48 -42 60 -3 12 -5
322 -4 690 l0 667 -175 0 -175 0 0 -520z m-1370 -365 c289 -28 554 -105 818
-237 118 -60 336 -198 369 -234 16 -18 -18 -37 -945 -501 -529 -265 -964 -478
-967 -473 -3 5 -5 137 -5 294 l0 286 -175 0 -175 0 0 -606 c0 -397 -3 -608
-10 -612 -5 -4 -320 -7 -698 -7 l-688 0 5 25 c3 14 8 54 11 90 11 102 53 292
92 408 121 364 290 640 558 907 393 394 889 623 1430 661 50 4 91 8 92 9 6 4
222 -3 288 -10z m1555 -826 c242 -298 410 -661 479 -1039 10 -53 14 -84 27
-200 12 -105 4 -476 -11 -499 -2 -3 -6 -31 -10 -61 -10 -89 -73 -320 -119
-443 -83 -218 -215 -447 -359 -623 -76 -94 -126 -148 -131 -143 -4 4 -198 296
-360 542 -87 132 -99 147 -110 130 -7 -10 -43 -79 -81 -155 -69 -136 -69 -136
-95 -124 -538 268 -1506 751 -1510 754 -3 2 -5 190 -5 418 0 308 3 418 12 425
20 18 2177 1097 2193 1097 8 1 44 -35 80 -79z m-2639 -1624 c1 -5 2 -280 3
-610 l1 -600 175 -3 175 -2 0 291 c0 160 3 292 6 295 6 4 1357 -670 1370 -683
4 -5 -21 -64 -55 -133 -34 -69 -67 -138 -74 -153 l-12 -28 127 6 c71 3 157 8
193 10 36 3 108 7 160 10 52 3 125 7 163 10 37 2 65 1 63 -3 -3 -4 -40 -33
-83 -64 -302 -217 -652 -359 -1003 -408 -47 -6 -98 -14 -115 -16 -44 -8 -351
-7 -415 0 -30 4 -71 9 -90 11 -96 12 -132 18 -210 36 -47 11 -92 22 -100 24
-84 18 -332 115 -447 176 -355 186 -675 482 -880 812 -178 289 -302 637 -330
932 -3 33 -7 67 -8 75 -1 8 -1 17 0 20 6 10 1385 5 1386 -5z"/>
</g>
</svg>
